<svg xmlns="http://www.w3.org/2000/svg" viewBox="0 0 1424.18 659.58"><defs><style>.cls-1,.cls-4{fill:none;stroke:#111;stroke-linecap:round;stroke-linejoin:round;}.cls-1{stroke-width:6px;}.cls-2{fill:#111;}.cls-3{fill:#6d6d6d;}.cls-4{stroke-width:8px;}</style></defs><g id="Layer_2" data-name="Layer 2"><g id="outline_III" data-name="outline III"><g id="support"><g id="chair"><path id="shape" class="cls-1" d="M201.13,655.11V386.62A139.09,139.09,0,0,1,340.22,247.53H596.13"/><path id="line" class="cls-1" d="M254.16,655.11V370.46A122.94,122.94,0,0,1,377.1,247.53"/></g><g id="man"><g id="jacket"><path id="jacket-2" data-name="jacket" class="cls-1" d="M896.27,417.1,884,383.89a66.68,66.68,0,0,0-34.25-37.27L727.24,291.78l-1-.09"/><path id="jacket-3" data-name="jacket" class="cls-1" d="M568.86,279.9,448.37,330.84a145.16,145.16,0,0,0-75.12,72.53S252.31,563.8,293.91,652.48"/></g><g id="lines_jacket" data-name="lines jacket"><path class="cls-1" d="M480.18,319.57l26.11,67.89,52,7.66-40.9,20.71S561.66,484,582.57,525.47"/><polyline class="cls-1" points="827.26 339.21 817.27 398.81 767.83 416.7 796.07 424.44"/><path class="cls-1" d="M395.88,519.44c36.8-6,215.81,8.55,215.81,8.55l-8.32,14.48"/><line class="cls-1" x1="480.18" y1="517.49" x2="495.55" y2="464.75"/><path class="cls-1" d="M461.78,655.11S455.68,565.06,526.6,522"/></g><g id="striped_shirt" data-name="striped shirt"><g id="stripes"><path class="cls-2" d="M739.31,532.64a260.73,260.73,0,0,1-56,2.72,307.65,307.65,0,0,1-50.92-7.26q.79,6.79,1.34,13.65a321.44,321.44,0,0,0,48.43,6.57q8.58.49,17,.5A266.41,266.41,0,0,0,738.4,546Z"/><path class="cls-2" d="M698.12,522a330.16,330.16,0,0,0,42.09-2.65l.91-13.33a335.78,335.78,0,0,1-80.2,1c-11.67-1.23-22.57-2.94-32.47-4.85q1.26,6.8,2.29,13.67c8.8,1.58,18.31,3,28.41,4.06A368.78,368.78,0,0,0,698.12,522Z"/><path class="cls-2" d="M649.65,468.34c-10.67-1-20.71-2.43-30-4q1.89,6.82,3.6,13.79c7.77,1.22,16,2.29,24.73,3.13q18.91,1.81,37.34,1.82a345.51,345.51,0,0,0,55.37-4.35l2.29-.4.91-13.45C708.81,471.19,675.86,470.83,649.65,468.34Z"/><path class="cls-2" d="M687.21,449.33a279,279,0,0,0,58.18-6l.92-13.53c-38.72,8.88-75.39,7.36-103.4,3.22a338.24,338.24,0,0,1-35.57-7.25q2.63,7.22,5.1,14.67c8.65,2,18.07,3.88,28.15,5.38A317.59,317.59,0,0,0,687.21,449.33Z"/><path class="cls-2" d="M748.87,392.19c-42.15,10.4-83.89,8.72-115.68,4.23a410.32,410.32,0,0,1-40.87-7.95q3.2,7.21,6.33,14.84c10.09,2.25,21.06,4.34,32.72,6A366.25,366.25,0,0,0,682.53,413a309.56,309.56,0,0,0,37.36-2.21,269.86,269.86,0,0,0,28.05-4.94Z"/><path class="cls-2" d="M751.15,358.68c-45,10.64-89.57,8.2-123.29,2.93a435,435,0,0,1-54.44-12.2q3.93,7.45,8,15.69c12.22,3.22,26.37,6.42,41.8,8.93a384.13,384.13,0,0,0,61.63,5.17c10.79,0,21.37-.51,31.68-1.53a284,284,0,0,0,33.7-5.35Z"/></g><path class="cls-2" d="M605.4,325.35a412.65,412.65,0,0,1-53.68-14c3,4.79,6.34,10.39,10,16.74a431,431,0,0,0,56.56,12.55q5.33.79,11,1.49A164.24,164.24,0,0,1,605.4,325.35Z"/><path class="cls-2" d="M716.91,329.1a63.59,63.59,0,0,1-4,8.47,25.51,25.51,0,0,1-4.34,5.53,285.7,285.7,0,0,0,44.23-8.21l.93-13.69A261.16,261.16,0,0,1,716.91,329.1Z"/></g><path id="neck" class="cls-1" d="M602.13,209.72l-8,50.29L566.26,282.6s38.75,58.09,91.45,71.31c17.86,4.48,46-.39,55.17-16.34,8.84-15.35,11.66-37,13.35-62.76a2.92,2.92,0,0,0-.28-1.35"/><g id="head"><path id="face" class="cls-1" d="M606.36,205.47c1.49,11.59,2.74,20.52,3.22,21.89C615.76,245,620,252.78,644,268.46s74.15,21.27,96.45-7.53c20.66-26.67,22.33-74.72,22.46-81.68,2-26.69,2.11-60.86-3.6-92.59-8.67-48.19-68.39-41.91-77.1-40.82-72.49,9-82.6,64.9-83.48,89.6"/><path id="headphones_back" data-name="headphones back" class="cls-2" d="M795,163.66c-.71-16-10.82-28.79-24.32-35.37a26,26,0,0,1-3.88,4.62c.32,22.06-1.42,62.16-3.32,73.85,1-.26,2-.57,2.92-.91-.81,7.09-3,15.26-8.3,21.18-4.57,5.1-10.89,7.95-19.17,8.65a10.24,10.24,0,1,0,.39,15c12.55-.89,22.61-5.46,29.95-13.65,11.31-12.61,12.78-30.48,12.57-40.65A42.6,42.6,0,0,0,795,163.66Z"/><polyline id="nose" class="cls-1" points="722.87 157.48 730.27 203.97 713.62 200.48"/><ellipse id="eye_II" data-name="eye II" class="cls-2" cx="743.46" cy="159.27" rx="4.79" ry="7.41" transform="matrix(1, -0.04, 0.04, 1, -6.25, 32.66)"/><ellipse id="eye" class="cls-2" cx="696.53" cy="159.04" rx="4.79" ry="7.41" transform="translate(-6.29 30.61) rotate(-2.51)"/><path id="brow" class="cls-1" d="M665.69,132.2a22,22,0,0,1,21.56-5.85"/><path id="brow_II" data-name="brow II" class="cls-1" d="M728.07,121.76s13.13-4,16.92,6.68"/><path id="mouth" class="cls-2" d="M713.62,222.36c-14.54,15.9-22.63,1.69-29.54-8.7a3.44,3.44,0,0,1,3.72-5.26C700.84,211.83,718.53,217,713.62,222.36Z"/><path id="hair" class="cls-2" d="M775.32,70.71C770.68,60.75,765,57.9,760,57.93a51.59,51.59,0,0,0-.89-5.43,58.84,58.84,0,0,0-27.38-37.68h0S714.76-3.31,661.26.54,606.38,35,606.38,35h0c-24.3,16.41-41.88,37-43.19,54.55-2.16,29,4.13,45,11.41,53.94,18.14-1.67,30.34,8.07,34.93,4.36,17.67-14.26,20.55-47.89,29-66a4.61,4.61,0,0,1,6.45-2c15,8.47,35.35,11.24,59.5,7.89,26.1-3.61,37.78-15.77,43-25.39.17.17.34.35.5.53l.71.79.33.37.6.72.41.51c.17.22.34.45.52.67l.45.61c.16.21.31.42.46.64l.48.69c.14.2.27.4.4.61l.51.79.34.56c.18.3.36.6.53.9l.29.52.54,1c.08.16.16.31.23.46.19.38.38.77.56,1.15a51.28,51.28,0,0,1,4,12.77A325.78,325.78,0,0,1,764,134.3a2.52,2.52,0,0,0,1.92-.63C776.6,125.14,786.35,94.4,775.32,70.71Z"/><g id="glasses"><path class="cls-1" d="M713.87,138.37s11.11,44.15-41.78,44.74c-26.11-.45-32.62-22.77-33.71-47.67Z"/><line class="cls-1" x1="638.38" y1="135.44" x2="618.1" y2="144.74"/><line class="cls-1" x1="725.21" y1="156.08" x2="714.65" y2="156.25"/><path class="cls-1" d="M723.43,138.83s3.69,41.36,36.75,40.42,26.81-18,30.52-42.66Z"/></g><path class="cls-3" d="M581.81,153.25c-.31,0-.61,0-.92,0C569.4,153.85,560.5,165,561,178.09c.49,12.77,9.71,22.75,20.78,22.75.31,0,.62,0,.93,0,11.48-.57,20.38-11.68,19.88-24.81C602.1,163.23,592.89,153.25,581.81,153.25Z"/><path class="cls-2" d="M633.27,176.64a42.69,42.69,0,0,0-19.88-34.26l-5-113.67-3.62.16a17.46,17.46,0,0,0-16.68,18.2L592,135.82c-1.09,0-2.18,0-3.28,0a42.72,42.72,0,1,0,44.55,40.82ZM583,206.81q-.62,0-1.23,0c-14.4,0-26.16-12.53-26.77-28.52-.63-16.38,10.85-30.3,25.58-31,.41,0,.81,0,1.22,0,14.4,0,26.16,12.53,26.77,28.53C609.21,192.15,597.74,206.08,583,206.81Z"/></g><path id="hand" class="cls-1" d="M765.2,549.33c-33.39-1.65-99.16-4.8-161.63-7.17-14.32,22-41.76,69.6-41.76,110.32h5.26l52.61-13.66"/></g><g id="message_bubbles" data-name="message bubbles"><path id="_..." data-name="..." class="cls-2" d="M1098.89,256.71a101.56,101.56,0,0,1-62.74-61.28,62.21,62.21,0,0,0-61.68,62.21c0,.88,0,1.76.07,2.63l-.07-.07v59.41h56.84c1.78.15,3.57.25,5.38.25a62.22,62.22,0,0,0,62.22-62.22C1098.91,257.33,1098.9,257,1098.89,256.71Zm-86.69,12.54c-3.6,0-6.06-2.77-6.06-6.47s2.57-6.47,6.16-6.47,6.06,2.67,6.06,6.47S1016,269.25,1012.2,269.25Zm21.26,0c-3.6,0-6.06-2.77-6.06-6.47s2.56-6.47,6.16-6.47,6.06,2.67,6.06,6.47S1037.26,269.25,1033.46,269.25Zm21.25,0c-3.59,0-6.06-2.77-6.06-6.47s2.57-6.47,6.17-6.47,6.06,2.67,6.06,6.47S1058.51,269.25,1054.71,269.25Z"/><g id="_" data-name="?"><path class="cls-2" d="M1227.32,159.55a96,96,0,1,0-96,97.2h96.19v-97.4ZM1128.76,217h-.41a8,8,0,0,1,0-15.9h.41a8,8,0,1,1,0,15.9ZM1147,164.74q-9,4.77-11,7.46t-2,8.44l0,3.06a5.76,5.76,0,1,1-11.51,0c.06-5,.16-8.32.31-9.86a18.33,18.33,0,0,1,1.73-6.21,16.15,16.15,0,0,1,3.27-4.85q1.82-1.72,8.59-5.52a76.13,76.13,0,0,0,10.13-6.42,20.44,20.44,0,0,0,6.9-15.29q0-9.19-6.66-14.44a24.59,24.59,0,0,0-15.69-5.25q-18,0-23.65,18.26a6.17,6.17,0,1,1-11.82-3.57q7.85-26,36.11-26,16.14,0,26.06,8.83t9.93,22.64Q1167.61,154,1147,164.74Z"/></g></g><g id="laptop"><path class="cls-2" d="M757.54,651.77,814.79,416a12.6,12.6,0,0,1,7.93-8.92H800.65a9.71,9.71,0,0,0-9.46,7.49L744.72,611.28H606.9s-8,41.2,38.54,41.2h112A2.92,2.92,0,0,1,757.54,651.77Z"/><path class="cls-2" d="M1144.3,407.1s-313.24.65-313.17.77c0,1.66-2.31,4.44-4,4.44a6.68,6.68,0,0,0-6.54,5.11L763.54,652.48h327.39a9.72,9.72,0,0,0,9.46-7.48l53.37-225.94A9.73,9.73,0,0,0,1144.3,407.1ZM964.88,557.58a24.07,24.07,0,1,1,24.06-24.07A24.07,24.07,0,0,1,964.88,557.58Zm99.91,4.57a23.43,23.43,0,1,0,0,45.24v6.17a29.42,29.42,0,1,1-6.09-58.21,29.06,29.06,0,0,1,6.09.64Z"/></g><path id="mug" class="cls-3" d="M1064.79,553h97.76a0,0,0,0,1,0,0v72.36a30,30,0,0,1-30,30h-37.76a30,30,0,0,1-30-30V553A0,0,0,0,1,1064.79,553Z"/><line id="line-2" data-name="line" class="cls-4" x1="4" y1="655.58" x2="1420.18" y2="655.58"/></g></g></g></svg>